# xmcd
#
# Track frame offsets:
#	150
#	21674
#	38323
#	55572
#	73721
#	93220
#	109644
#	126818
#	144067
#	161466
#	181265
#	201214
#	221387
#
# Disc length: 3161
#
# Revision: 1
# Processed by: cddbd v1.5.2PL0 Copyright (c) Steve Scherf et al.
# Submitted via: kJams Lite (development) 1.0patch49.48
#
DISCID=a30c570d
DTITLE=Twain, Shania - SKG527
DYEAR=2000
DGENRE=Karaoke
TTITLE0=Twain, Shania - From This Moment On
TTITLE1=Twain, Shania - You're Still The One
TTITLE2=Twain, Shania - Don't Be Stupid
TTITLE3=Twain, Shania - God Bless The Child
TTITLE4=Twain, Shania - Home Ain't Where His Heart Is
TTITLE5=Twain, Shania - Honey I'm Home
TTITLE6=Twain, Shania - Love Gets Me Every Time
TTITLE7=Twain, Shania - Man I Feel Like A Woman
TTITLE8=Twain, Shania - That Don't Impress Me Much
TTITLE9=Twain, Shania - Woman In Me, The
TTITLE10=Twain, Shania - You Win My Love
TTITLE11=Twain, Shania - I'm Outta Here
TTITLE12=Twain, Shania - I'm Holding On To Love
EXTD=
EXTT0=
EXTT1=
EXTT2=
EXTT3=
EXTT4=
EXTT5=
EXTT6=
EXTT7=
EXTT8=
EXTT9=
EXTT10=
EXTT11=
EXTT12=
PLAYORDER=
